<mxfile host="app.diagrams.net" modified="2024-06-11T17:59:59.753Z" agent="Mozilla/5.0 (Macintosh; Intel Mac OS X 10_15_7) AppleWebKit/537.36 (KHTML, like Gecko) Chrome/125.0.0.0 Safari/537.36" etag="y60NRPobr9a_l_P0nyW6" version="24.5.2" type="github">
  <diagram id="6a731a19-8d31-9384-78a2-239565b7b9f0" name="Page-1">
    <mxGraphModel dx="1224" dy="738" grid="1" gridSize="10" guides="1" tooltips="1" connect="1" arrows="1" fold="1" page="1" pageScale="1" pageWidth="827" pageHeight="1169" background="none" math="0" shadow="0">
      <root>
        <mxCell id="0" />
        <mxCell id="1" parent="0" />
        <mxCell id="168ri_g_Q_yuVbLlaaN--2257" value="" style="shape=mxgraph.cisco.routers.router;sketch=0;html=1;pointerEvents=1;dashed=0;fillColor=#036897;strokeColor=#ffffff;strokeWidth=2;verticalLabelPosition=bottom;verticalAlign=top;align=center;outlineConnect=0;" vertex="1" parent="1">
          <mxGeometry x="270" y="90" width="78" height="53" as="geometry" />
        </mxCell>
        <mxCell id="168ri_g_Q_yuVbLlaaN--2258" value="" style="shape=mxgraph.cisco.routers.router;sketch=0;html=1;pointerEvents=1;dashed=0;fillColor=#036897;strokeColor=#ffffff;strokeWidth=2;verticalLabelPosition=bottom;verticalAlign=top;align=center;outlineConnect=0;" vertex="1" parent="1">
          <mxGeometry x="520" y="90" width="78" height="53" as="geometry" />
        </mxCell>
        <mxCell id="168ri_g_Q_yuVbLlaaN--2272" style="edgeStyle=orthogonalEdgeStyle;rounded=0;orthogonalLoop=1;jettySize=auto;html=1;exitX=0.5;exitY=0;exitDx=0;exitDy=0;exitPerimeter=0;shape=link;" edge="1" parent="1" source="168ri_g_Q_yuVbLlaaN--2259" target="168ri_g_Q_yuVbLlaaN--2257">
          <mxGeometry relative="1" as="geometry" />
        </mxCell>
        <mxCell id="168ri_g_Q_yuVbLlaaN--2259" value="" style="shape=mxgraph.cisco.switches.workgroup_switch;sketch=0;html=1;pointerEvents=1;dashed=0;fillColor=#036897;strokeColor=#ffffff;strokeWidth=2;verticalLabelPosition=bottom;verticalAlign=top;align=center;outlineConnect=0;" vertex="1" parent="1">
          <mxGeometry x="258.5" y="230" width="101" height="50" as="geometry" />
        </mxCell>
        <mxCell id="168ri_g_Q_yuVbLlaaN--2260" value="" style="shape=mxgraph.cisco.switches.workgroup_switch;sketch=0;html=1;pointerEvents=1;dashed=0;fillColor=#036897;strokeColor=#ffffff;strokeWidth=2;verticalLabelPosition=bottom;verticalAlign=top;align=center;outlineConnect=0;" vertex="1" parent="1">
          <mxGeometry x="508.5" y="230" width="101" height="50" as="geometry" />
        </mxCell>
        <mxCell id="168ri_g_Q_yuVbLlaaN--2266" style="rounded=0;orthogonalLoop=1;jettySize=auto;html=1;exitX=0.5;exitY=0;exitDx=0;exitDy=0;exitPerimeter=0;shape=link;" edge="1" parent="1" source="168ri_g_Q_yuVbLlaaN--2261" target="168ri_g_Q_yuVbLlaaN--2259">
          <mxGeometry relative="1" as="geometry" />
        </mxCell>
        <mxCell id="168ri_g_Q_yuVbLlaaN--2261" value="web server 1" style="shape=mxgraph.cisco.servers.fileserver;sketch=0;html=1;pointerEvents=1;dashed=0;fillColor=#036897;strokeColor=#ffffff;strokeWidth=2;verticalLabelPosition=bottom;verticalAlign=top;align=center;outlineConnect=0;" vertex="1" parent="1">
          <mxGeometry x="240" y="320" width="43" height="62" as="geometry" />
        </mxCell>
        <mxCell id="168ri_g_Q_yuVbLlaaN--2269" style="rounded=0;orthogonalLoop=1;jettySize=auto;html=1;exitX=0.5;exitY=0;exitDx=0;exitDy=0;exitPerimeter=0;shape=link;" edge="1" parent="1" source="168ri_g_Q_yuVbLlaaN--2263" target="168ri_g_Q_yuVbLlaaN--2260">
          <mxGeometry relative="1" as="geometry" />
        </mxCell>
        <mxCell id="168ri_g_Q_yuVbLlaaN--2263" value="web server 3&amp;nbsp;" style="shape=mxgraph.cisco.servers.fileserver;sketch=0;html=1;pointerEvents=1;dashed=0;fillColor=#036897;strokeColor=#ffffff;strokeWidth=2;verticalLabelPosition=bottom;verticalAlign=top;align=center;outlineConnect=0;" vertex="1" parent="1">
          <mxGeometry x="477" y="320" width="43" height="62" as="geometry" />
        </mxCell>
        <mxCell id="168ri_g_Q_yuVbLlaaN--2268" style="rounded=0;orthogonalLoop=1;jettySize=auto;html=1;exitX=0.5;exitY=0;exitDx=0;exitDy=0;exitPerimeter=0;shape=link;" edge="1" parent="1" source="168ri_g_Q_yuVbLlaaN--2264">
          <mxGeometry relative="1" as="geometry">
            <mxPoint x="344" y="280" as="targetPoint" />
          </mxGeometry>
        </mxCell>
        <mxCell id="168ri_g_Q_yuVbLlaaN--2271" style="rounded=0;orthogonalLoop=1;jettySize=auto;html=1;shape=link;dashed=1;" edge="1" parent="1" source="168ri_g_Q_yuVbLlaaN--2264" target="168ri_g_Q_yuVbLlaaN--2260">
          <mxGeometry relative="1" as="geometry" />
        </mxCell>
        <mxCell id="168ri_g_Q_yuVbLlaaN--2264" value="web server 2" style="shape=mxgraph.cisco.servers.fileserver;sketch=0;html=1;pointerEvents=1;dashed=0;fillColor=#036897;strokeColor=#ffffff;strokeWidth=2;verticalLabelPosition=bottom;verticalAlign=top;align=center;outlineConnect=0;" vertex="1" parent="1">
          <mxGeometry x="348" y="320" width="43" height="62" as="geometry" />
        </mxCell>
        <mxCell id="168ri_g_Q_yuVbLlaaN--2270" style="rounded=0;orthogonalLoop=1;jettySize=auto;html=1;exitX=0.5;exitY=0;exitDx=0;exitDy=0;exitPerimeter=0;shape=link;" edge="1" parent="1" source="168ri_g_Q_yuVbLlaaN--2265" target="168ri_g_Q_yuVbLlaaN--2260">
          <mxGeometry relative="1" as="geometry" />
        </mxCell>
        <mxCell id="168ri_g_Q_yuVbLlaaN--2265" value="web server 4" style="shape=mxgraph.cisco.servers.fileserver;sketch=0;html=1;pointerEvents=1;dashed=0;fillColor=#036897;strokeColor=#ffffff;strokeWidth=2;verticalLabelPosition=bottom;verticalAlign=top;align=center;outlineConnect=0;" vertex="1" parent="1">
          <mxGeometry x="580" y="320" width="43" height="62" as="geometry" />
        </mxCell>
        <mxCell id="168ri_g_Q_yuVbLlaaN--2273" style="edgeStyle=orthogonalEdgeStyle;rounded=0;orthogonalLoop=1;jettySize=auto;html=1;exitX=0.5;exitY=0;exitDx=0;exitDy=0;exitPerimeter=0;entryX=0.5;entryY=1;entryDx=0;entryDy=0;entryPerimeter=0;shape=link;" edge="1" parent="1" source="168ri_g_Q_yuVbLlaaN--2260" target="168ri_g_Q_yuVbLlaaN--2258">
          <mxGeometry relative="1" as="geometry" />
        </mxCell>
      </root>
    </mxGraphModel>
  </diagram>
</mxfile>
